<svg xmlns="http://www.w3.org/2000/svg" xmlns:xlink="http://www.w3.org/1999/xlink" version="1.1" x="0px" y="0px" viewBox="0 0 100 125" style="enable-background:new 0 0 100 100;" xml:space="preserve"><g><path d="M42.841,87.871c0,0,2.003,2.492-0.5,5.648s-4.792,1.746-5.412,5.197c-0.146,0.815,0.695,1.126,1.225,1.232   C25.932,99.977,15.709,100,14.165,100c-2.532,0-4.21-0.88-4.129-3.273c1.778-8.488,10.407-8.488,10.407-8.488l10.66-24.087   l-8.497-25.119c0,0-9.307-0.594-9.793-0.587C-1.626,38.649,0.061,22.128,0.061,22.128l13.954-2.109l4.412-5.098l10.088-2.849   l4.78-10.124c0,0,1.577-4.229,3.619-0.226c2.383,4.712,6.611,13.375,9.769,21.476c4.641,11.91,17.005,16.015,27.092,27.793   c2.434,2.842,5.076,5.512,7.628,8.127c-1.433,3.854-0.485,10.104,2.823,18.372c1.152,2.881,2.191,6.764,0.591,8.906   c-0.807,1.08-2.226,1.627-3.573,1.887c-1.631-17.092-16.046-18.168-19.955-21.99c-4.145-4.053-4.496-7.107-4.496-7.107   s-1.219-6.804-3.641-10.82c-1.419-2.354-9.697-9.063-9.697-9.063l-0.129,6.874c0,0-4.365,0.896-5.718,2.877   c-1.043,1.528-1.508,2.689-3.079,3.439c-0.589,0.281-2.506,0.653-2.506,0.653s-0.384,2.289,0.558,3.931   c1.508,2.627,2.918,2.889,5.755,4.218c0,0,2.67,1.661,2.837,5.813C41.406,72.938,37,78.237,42.841,87.871z M93.283,43.719   c-2.717-3.422-5.331-2.779-4.761-0.456c1.228,5.002,1.306,8.932,0.769,12.002c0.597,0.164,1.205,0.393,1.821,0.691   c1.353,0.657,1.913,2.281,1.253,3.627s-2.291,1.904-3.644,1.246c-0.475-0.23-0.888-0.363-1.213-0.417   c-0.349-0.059-0.596-0.028-0.702,0.07c-0.234,0.216-0.493,0.793-0.591,1.829c-0.199,2.129,0.283,6.207,3.07,13.171   c2.432,6.075,2.392,10.846-0.121,14.179c-2.14,2.839-5.528,3.809-8.052,4.118c-1.264,4.667-6.48,5.978-9.4,5.978   c-1.693,0-19.328,0-20.888,0c0.021,0.021-1.844-0.099-1.631-1.282c0.387-2.156,2.223-2.834,4.502-2.844   c2.277-0.01,2.916,0.032,4.418,0.059c0.754,0.014-7.257-2.007-6.622-8.082c1.697-12.075,14.701-7.107,14.701-7.107   c-12.821-6.306-15.507,4.048-15.507,4.048c-0.019,0.049-3.004,12.625-3.004,12.625s-0.562,2.345-2.554,2.76   c14.178-0.029,29.296-0.06,36.138-0.06c15.544,0,17.705-17.552,11.925-24.925C104.716,62.52,99.426,51.455,93.283,43.719z"/></g><text x="0" y="115" fill="#000000" font-size="5px" font-weight="bold" font-family="'Helvetica Neue', Helvetica, Arial-Unicode, Arial, Sans-serif">Created by b farias</text><text x="0" y="120" fill="#000000" font-size="5px" font-weight="bold" font-family="'Helvetica Neue', Helvetica, Arial-Unicode, Arial, Sans-serif">from the Noun Project</text></svg>